Vicky Donor - 2012 - DVDRip - 1080p - x264 - ESub - [D!D] 

Screenshots :
 
http://i.imgur.com/DB9ld.jpg 
http://i.imgur.com/c9rhG.jpg 
http://i.imgur.com/w0Uog.jpg 
http://i.imgur.com/pmjZJ.jpg 
http://i.imgur.com/jKj46.jpg

File Info :


General

Format                                   : Matroska
Format version                           : Version 2
File size                                : 4.37 GiB
Duration                                 : 2h 5mn
Overall bit rate mode                    : Variable
Overall bit rate                         : 4 989 Kbps


Video
ID                                       : 1
Format                                   : AVC
Format/Info                              : Advanced Video Codec
Format profile                           : High@L4.1
Format settings, CABAC                   : Yes
Format settings, ReFrames                : 3 frames
Codec ID                                 : V_MPEG4/ISO/AVC
Duration                                 : 2h 5mn
Bit rate mode                            : Variable
Bit rate                                 : 4 537 Kbps
Maximum bit rate                         : 40.0 Mbps
Width                                    : 1 920 pixels
Height                                   : 816 pixels
Display aspect ratio                     : 2.35:1
Frame rate                               : 23.976 fps
Color space                              : YUV
Chroma subsampling                       : 4:2:0
Bit depth                                : 8 bits
Scan type                                : Progressive
Bits/(Pixel*Frame)                       : 0.121
Stream size                              : 3.90 GiB (89%)


Audio

Format                                   : AC-3
Format/Info                              : Audio Coding 3
Mode extension                           : CM (complete main)
Format settings, Endianness              : Big
Codec ID                                 : A_AC3
Duration                                 : 2h 5mn
Bit rate mode                            : Constant
Bit rate                                 : 448 Kbps
Channel(s)                               : 6 channels
Channel positions                        : Front: L C R, Side: L R, LFE
Sampling rate                            : 48.0 KHz
Bit depth                                : 16 bits
Compression mode                         : Lossy
Delay relative to video                  : 16ms
Stream size                              : 402 MiB (9%)
Title                                    : D!D
Language                                 : Hindi
Default                                  : Yes
Forced                                   : No

Text
ID                                       : 3
Format                                   : VobSub
Muxing mode                              : zlib
Codec ID                                 : S_VOBSUB
Codec ID/Info                            : The same subtitle format used on DVDs
Title                                    : D!D
Language                                 : Hindi
Default                                  : Yes
Forced                                   : No
